<?xml version="1.0" encoding="utf-8"?>
<svg width="27" height="27" viewBox="0 0 27 27" fill="none" xmlns="http://www.w3.org/2000/svg">
  <g transform="matrix(-1 0 0 1 26 1)">
    <path d="M9.30142 0C14.4383 0 18.6028 4.02625 18.6028 8.99261C18.6028 13.959 14.4383 17.9852 9.30142 17.9852C4.16409 17.9852 0 13.959 0 8.99261C0 4.02625 4.16409 6.92328e-07 9.30142 6.92328e-07C9.30142 6.92328e-07 9.30142 0 9.30142 0Z" fill="none" stroke-width="2" stroke="#BDBDBD" transform="translate(6.397 0)" />
    <path d="M7.8472 0C12.1815 0 15.6948 3.39668 15.6948 7.58667C15.6948 11.7771 12.1815 15.1737 7.8472 15.1737C3.51332 15.1737 0 11.7771 0 7.58667C0 3.39668 3.51332 1.19209e-07 7.8472 1.19209e-07C7.8472 1.19209e-07 7.8472 0 7.8472 0Z" transform="translate(7.842 1.32)" />
    <path d="M8.79958 0L0 7.7117L2.66774 9.78633L10.1783 1.16597L8.79958 0Z" fill="#BDBDBD" fill-rule="evenodd" stroke-width="2" stroke="#BDBDBD" transform="translate(0 15.214)" />
  </g>
</svg>